<?xml version="1.0" encoding="utf-8"?>
<!-- Generator: Adobe Illustrator 27.4.1, SVG Export Plug-In . SVG Version: 6.00 Build 0)  -->
<svg version="1.1" xmlns="http://www.w3.org/2000/svg" xmlns:xlink="http://www.w3.org/1999/xlink" x="0px" y="0px"
	 viewBox="0 0 419.26 399.66" style="enable-background:new 0 0 419.26 399.66;" xml:space="preserve">
<style type="text/css">
	.st0{fill:#FCF1EB;}
	.st1{fill:#EA0525;}
	.st2{fill:#1D54DD;}
	.st3{fill:#010026;}
	.st4{fill:#F4822B;}
	.st5{fill:#82414C;}
	.st6{fill:#10006D;}
	.st7{display:none;fill:#EA0525;}
	.st8{fill:#10006D;stroke:#FCF1EB;stroke-width:2;stroke-miterlimit:10;}
	.st9{fill:#F4822B;stroke:#FCF1EB;stroke-width:2;stroke-miterlimit:10;}
	.st10{fill:#EA0525;stroke:#FCF1EB;stroke-width:2;stroke-miterlimit:10;}
	.st11{fill:none;stroke:#010026;stroke-width:3;stroke-miterlimit:10;}
	.st12{fill:none;stroke:#010026;stroke-width:2;stroke-miterlimit:10;}
	.st13{fill:none;stroke:#FFFAF8;stroke-width:2;stroke-miterlimit:10;}
	.st14{fill:#F4822B;stroke:#FFFAF8;stroke-width:2;stroke-miterlimit:10;}
	.st15{fill:#10006D;stroke:#FFFAF8;stroke-width:2;stroke-miterlimit:10;}
	.st16{fill:#EA0525;stroke:#FFFAF8;stroke-width:2;stroke-miterlimit:10;}
	.st17{fill:#F4822B;stroke:#FFFAF8;stroke-width:4.6456;stroke-miterlimit:10;}
	.st18{fill:#10006D;stroke:#FFFAF8;stroke-width:4.6456;stroke-miterlimit:10;}
	.st19{fill:#EA0525;stroke:#FFFAF8;stroke-width:4.6456;stroke-miterlimit:10;}
	.st20{fill:#F4822B;stroke:#FFFFFF;stroke-width:2;stroke-miterlimit:10;}
	.st21{fill:#10006D;stroke:#FFFFFF;stroke-width:2;stroke-miterlimit:10;}
	.st22{fill:#EA0525;stroke:#FFFFFF;stroke-width:2;stroke-miterlimit:10;}
	.st23{fill:none;stroke:#010026;stroke-miterlimit:10;}
</style>
<g id="Layer_3">
</g>
<g id="Layer_1">
	<g>
		<path class="st4" d="M181.53,134.9h57.31v116.54c0,20.84,10.15,32.63,31.27,32.63s31.26-11.79,31.26-32.63V134.9h57.59v122.85
			c0,46.88-32.63,78.69-88.85,78.69c-55.94,0-88.57-31.81-88.57-78.69V134.9z"/>
		<path class="st6" d="M289.47,99.4c0,4.83-0.97,9.42-2.92,13.79c-1.96,4.37-4.6,8.15-7.93,11.37c-3.33,3.22-7.13,5.75-11.37,7.58
			c-4.25,1.84-8.79,2.76-13.62,2.76h-43.08v166.1c0,5.29-0.91,9.99-2.75,14.13c-1.84,4.14-4.36,7.76-7.58,10.86
			c-3.22,3.1-6.89,5.46-11.02,7.06s-8.51,2.42-13.1,2.42h-2.75c-4.37,0-8.62-0.81-12.75-2.42s-7.81-3.96-11.03-7.06
			c-3.22-3.1-5.81-6.72-7.75-10.86c-1.95-4.13-2.92-8.84-2.92-14.13V134.9H96.14c-4.82,0-9.36-0.92-13.61-2.76
			c-4.25-1.84-8.05-4.36-11.37-7.58c-3.34-3.22-5.99-7-7.93-11.37c-1.96-4.36-2.93-8.96-2.93-13.79s0.97-9.42,2.93-13.79
			c1.95-4.36,4.59-8.21,7.93-11.54c3.32-3.32,7.12-5.97,11.37-7.93c4.24-1.95,8.79-2.93,13.61-2.93h157.48
			c4.83,0,9.36,0.98,13.62,2.93c4.24,1.96,8.04,4.6,11.37,7.93c3.33,3.34,5.97,7.19,7.93,11.54
			C288.49,89.98,289.47,94.58,289.47,99.4z"/>
		<path class="st1" d="M210.55,301v-166.1l-29.02-0.01v122.85c0,24.56,8.97,44.96,25.53,58.85c0.24-0.49,0.51-0.96,0.73-1.47
			C209.64,310.99,210.55,306.29,210.55,301z"/>
	</g>
</g>
<g id="Layer_2">
</g>
</svg>
